name C:\Users\r0593348\3dpredictsim\Results\Batchsim_tmt_linear\Pog_s1_tmt_aCst_d02_k2000_ig24_act.mot
datacolumns 128
datarows 4
range 0.59601499 0.63177589
endheader
time	pelvis_tilt	pelvis_list	pelvis_rotation	pelvis_tx	pelvis_ty	pelvis_tz	hip_flexion_l	hip_adduction_l	hip_rotation_l	hip_flexion_r	hip_adduction_r	hip_rotation_r	knee_angle_l	knee_angle_r	ankle_angle_l	ankle_angle_r	subtalar_angle_l	subtalar_angle_r	tmt_angle_l	tmt_angle_r	mtp_angle_l	mtp_angle_r	lumbar_extension	lumbar_bending	lumbar_rotation	arm_flex_l	arm_add_l	arm_rot_l	arm_flex_r	arm_add_r	arm_rot_r	elbow_flex_l	elbow_flex_r	pro_sup_l	pro_sup_r	glut_med1_l/activation	glut_med2_l/activation	glut_med3_l/activation	glut_min1_l/activation	glut_min2_l/activation	glut_min3_l/activation	semimem_l/activation	semiten_l/activation	bifemlh_l/activation	bifemsh_l/activation	sar_l/activation	add_long_l/activation	add_brev_l/activation	add_mag1_l/activation	add_mag2_l/activation	add_mag3_l/activation	tfl_l/activation	pect_l/activation	grac_l/activation	glut_max1_l/activation	glut_max2_l/activation	glut_max3_l/activation	iliacus_l/activation	psoas_l/activation	quad_fem_l/activation	gem_l/activation	peri_l/activation	rect_fem_l/activation	vas_med_l/activation	vas_int_l/activation	vas_lat_l/activation	med_gas_l/activation	lat_gas_l/activation	soleus_l/activation	tib_post_l/activation	flex_dig_l/activation	flex_hal_l/activation	tib_ant_l/activation	per_brev_l/activation	per_long_l/activation	per_tert_l/activation	ext_dig_l/activation	ext_hal_l/activation	ercspn_l/activation	intobl_l/activation	extobl_l/activation	glut_med1_r/activation	glut_med2_r/activation	glut_med3_r/activation	glut_min1_r/activation	glut_min2_r/activation	glut_min3_r/activation	semimem_r/activation	semiten_r/activation	bifemlh_r/activation	bifemsh_r/activation	sar_r/activation	add_long_r/activation	add_brev_r/activation	add_mag1_r/activation	add_mag2_r/activation	add_mag3_r/activation	tfl_r/activation	pect_r/activation	grac_r/activation	glut_max1_r/activation	glut_max2_r/activation	glut_max3_r/activation	iliacus_r/activation	psoas_r/activation	quad_fem_r/activation	gem_r/activation	peri_r/activation	rect_fem_r/activation	vas_med_r/activation	vas_int_r/activation	vas_lat_r/activation	med_gas_r/activation	lat_gas_r/activation	soleus_r/activation	tib_post_r/activation	flex_dig_r/activation	flex_hal_r/activation	tib_ant_r/activation	per_brev_r/activation	per_long_r/activation	per_tert_r/activation	ext_dig_r/activation	ext_hal_r/activation	ercspn_r/activation	intobl_r/activation	extobl_r/activation	
          0.59601499	         -2.93017647	          1.26860772	         -7.42536113	          0.74501874	          0.86117167	          0.00180756	         32.31045713	          1.09708178	         -0.47022668	        -15.06292757	         -1.78936586	          7.90139148	        -16.93111147	        -16.70276127	          8.61421390	         -9.30976234	          1.52629237	         13.59416466	          0.01397111	          0.50117681	         -0.09314246	         30.54715336	         -0.50014284	          1.03430435	          2.52645282	        -11.36200504	        -13.48365206	          6.80290601	          3.61844686	        -13.48174912	         17.04871724	         18.60815251	         42.81272500	         86.51662706	         86.51662706	          0.05006081	          0.05105161	          0.05993273	          0.05001008	          0.05000593	          0.05000864	          0.07184207	          0.05993426	          0.20278133	          0.05992935	          0.05000115	          0.06287229	          0.10542466	          0.16326490	          0.15663212	          0.12450188	          0.05000207	          0.05001076	          0.05993405	          0.05993344	          0.05993550	          0.06606192	          0.06021469	          0.06095089	          0.13857403	          0.05000046	          0.05286862	          0.05000143	          0.06873947	          0.09071709	          0.06736840	          0.05993359	          0.05993360	          0.05993360	          0.05993354	          0.05993444	          0.05993421	          0.49162494	          0.30202579	          0.21713485	          0.14186978	          0.51883585	          0.28760078	          0.05516315	          0.12786492	          0.11640199	          0.19827527	          0.08784645	          0.05993372	          0.23088440	          0.14254189	          0.10319086	          0.05000387	          0.05000028	          0.05000026	          0.05001627	          0.10321696	          0.05000017	          0.05000013	          0.05000015	          0.05000042	          0.05000041	          0.19199991	          0.05000066	          0.05000038	          0.05000846	          0.05000239	          0.05000067	          0.35517554	          0.55040068	          0.05000015	          0.05000134	          0.06932718	          0.20794426	          0.09631848	          0.10371781	          0.09621327	          0.15514531	          0.23928153	          0.05993368	          0.17057719	          0.19527173	          0.21617787	          0.05000003	          0.35442156	          0.33650428	          0.05000011	          0.19857799	          0.05000017	          0.05000001	          0.05000002	          0.05000004	
          0.60793529	         -2.92620600	          1.19517554	         -7.60613647	          0.76390899	          0.85994176	          0.00150399	         31.68625910	          1.31248818	         -0.27151221	        -15.32721845	         -1.98253923	          7.67925798	        -16.61839708	        -17.78736397	          8.13194984	        -12.08344534	          1.13926139	         14.03761336	          0.01293832	          0.45978006	         -0.08662771	         31.95138846	         -0.26239239	          0.90545380	          2.61351242	        -12.66018424	        -13.46545900	          6.69740785	          3.25010156	        -13.52633351	         17.34061834	         18.56817809	         43.86584066	         86.51662706	         86.51662706	          0.05000080	          0.05000160	          0.05000030	          0.05993351	          0.05993282	          0.05000352	          0.05993485	          0.05000066	          0.17937996	          0.05000023	          0.05001328	          0.08611385	          0.14846458	          0.13621863	          0.16338181	          0.15270527	          0.05000017	          0.06779510	          0.05000118	          0.05000059	          0.05000185	          0.18528725	          0.05993334	          0.05084904	          0.11560741	          0.18968710	          0.17976706	          0.07184069	          0.21679487	          0.21142195	          0.18467144	          0.05000003	          0.05000005	          0.05000002	          0.05000001	          0.05000083	          0.05000065	          0.67102770	          0.34749984	          0.18115202	          0.52184942	          0.63334316	          0.46904229	          0.05000007	          0.10667219	          0.09710916	          0.16541260	          0.07328660	          0.05000042	          0.19261700	          0.11891664	          0.08608784	          0.05000163	          0.05000016	          0.05000017	          0.05000030	          0.08610969	          0.12204320	          0.20705455	          0.05002609	          0.05000674	          0.05000071	          0.16017730	          0.08801465	          0.05465641	          0.05000293	          0.05000169	          0.05000133	          0.29630766	          0.45917561	          0.07754912	          0.05000348	          0.05783692	          0.17347892	          0.10290134	          0.10159690	          0.08368794	          0.12943104	          0.19962226	          0.05000010	          0.14230519	          0.16290683	          0.18034789	          0.20608393	          0.35147234	          0.30936515	          0.47065903	          0.36301911	          0.16580947	          0.05000018	          0.05000022	          0.06403321	
          0.61985559	         -2.91585605	          1.12425399	         -7.75017660	          0.78303513	          0.85836643	          0.00120727	         30.93788827	          1.54168261	         -0.01869955	        -15.40296356	         -2.13837643	          7.45813797	        -16.93139286	        -19.24785451	          7.47198527	        -14.61837134	          0.74868436	         14.45430925	          0.00318655	          0.38222870	         -0.05473356	         32.54834057	         -0.01347580	          0.75874492	          2.68824749	        -13.93867592	        -13.45817237	          6.65957485	          2.81047446	        -13.58632808	         17.56702366	         18.49436520	         44.90155874	         86.51662706	         86.51662706	          0.16598922	          0.05000026	          0.14895933	          0.05000013	          0.05000014	          0.05000028	          0.05000116	          0.05000029	          0.14964899	          0.05000007	          0.05000022	          0.07184145	          0.12385789	          0.26683051	          0.24483697	          0.15518696	          0.05000192	          0.05657219	          0.07115768	          0.13491944	          0.13001382	          0.15458917	          0.05000015	          0.05000029	          0.25820964	          0.15824784	          0.14997200	          0.05993372	          0.25687947	          0.25642547	          0.22433715	          0.05000011	          0.05000030	          0.05000002	          0.05992403	          0.05993393	          0.05993366	          0.61358612	          0.38983764	          0.20176427	          0.43535709	          0.58030116	          0.39130182	          0.05000001	          0.08899201	          0.08101398	          0.13799664	          0.06114006	          0.05993623	          0.16069217	          0.09920710	          0.07181955	          0.06316918	          0.05993425	          0.07182204	          0.05000042	          0.07183776	          0.18141685	          0.28673298	          0.30217221	          0.12046037	          0.17166627	          0.13362905	          0.07342725	          0.05993733	          0.05993720	          0.05995379	          0.07184014	          0.24719671	          0.38307045	          0.07184050	          0.06172787	          0.05993352	          0.14472598	          0.09384836	          0.10320690	          0.06981931	          0.10797873	          0.16653624	          0.05000002	          0.11871908	          0.13590618	          0.15045649	          0.39358896	          0.39888904	          0.31038418	          0.70505093	          0.50310631	          0.34924059	          0.07056234	          0.05993366	          0.05356613	
          0.63177589	         -2.90088343	          1.05781631	         -7.85496176	          0.80216990	          0.85646650	          0.00093601	         30.02749799	          1.75298225	          0.28002477	        -15.27780199	         -2.25303567	          7.24921110	        -17.55293023	        -21.10740706	          7.03905266	        -16.57814745	          0.33026574	         14.82028082	         -0.00574432	          0.28987140	         -0.18826475	         31.61918984	          0.22792242	          0.59364218	          2.74685568	        -15.14728816	        -13.47120788	          6.73898454	          2.33445227	        -13.65363696	         17.73008257	         18.35080793	         45.91226500	         86.51662706	         86.51662706	          0.27463694	          0.29123742	          0.38495071	          0.25019552	          0.15456102	          0.25145653	          0.07184072	          0.08998713	          0.12484572	          0.07184058	          0.05000146	          0.05993431	          0.10332934	          0.22260537	          0.20428627	          0.16474613	          0.05000022	          0.05002383	          0.08609419	          0.23826538	          0.19100138	          0.17367806	          0.05000027	          0.05000019	          0.21541332	          0.13201956	          0.31119393	          0.05000015	          0.21430389	          0.24023394	          0.19453650	          0.05000010	          0.05000014	          0.05000005	          0.05000000	          0.05000048	          0.05000033	          0.69046463	          0.32522518	          0.16832328	          0.68538065	          0.68137883	          0.47651056	          0.05565384	          0.08429181	          0.06758647	          0.27504710	          0.05100662	          0.05000225	          0.13406799	          0.08276433	          0.05991620	          0.09355580	          0.05000075	          0.05991817	          0.05000021	          0.05993155	          0.15134834	          0.24150453	          0.25208933	          0.10049539	          0.14321404	          0.11148102	          0.06126946	          0.05000378	          0.05000542	          0.05001745	          0.05993340	          0.20622558	          0.37823999	          0.05993348	          0.05149713	          0.05000023	          0.12073864	          0.08611140	          0.08610654	          0.05824753	          0.09008200	          0.13893401	          0.05000010	          0.09904222	          0.11338073	          0.12551940	          0.32835435	          0.33277752	          0.25894259	          0.66737403	          0.59465838	          0.29135656	          0.09770144	          0.05000008	          0.05000007	
